<svg width="129" height="64" viewBox="0 0 129 64" fill="none" xmlns="http://www.w3.org/2000/svg">
<g opacity="0.5" filter="url(#filter0_d_490_1375)">
<path d="M100.176 1.50221C100.903 -0.00604511 103.051 -0.00600379 103.778 1.50221L109.767 13.926H113C118.523 13.926 123 18.4032 123 23.926V48.0003C123 53.5231 118.523 58.0003 113 58.0003H10C4.47715 58.0003 0 53.5231 0 48.0003V23.926C0 18.4032 4.47715 13.926 10 13.926H94.1875L100.176 1.50221Z" fill="#D9D9D9" fill-opacity="0.71" shape-rendering="crispEdges"/>
</g>
<path d="M10.728 30.9372H22.978V32.6872H10.728V30.9372ZM10.728 44.9372H8.97803V32.6872H10.728V44.9372ZM22.978 44.9372V46.6872H10.728V44.9372H22.978ZM22.978 44.9372H24.728V32.6872H22.978V44.9372ZM15.103 35.3122H13.353V37.0622H15.103V35.3122ZM18.603 35.3122H20.353V37.0622H18.603V35.3122ZM14.228 40.5622V38.8122H12.478V40.5622H14.228ZM19.478 40.5622V42.3122H14.228V40.5622H19.478ZM19.478 40.5622H21.228V38.8122H19.478V40.5622Z" fill="black"/>
<path d="M37.02 42.6872V29.8024H39.4897V42.6872H37.02ZM43.8755 36.2008L41.6343 35.7965C41.8862 34.8942 42.3198 34.2262 42.9351 33.7926C43.5503 33.359 44.4644 33.1423 45.6772 33.1423C46.7788 33.1423 47.5991 33.2741 48.1382 33.5378C48.6772 33.7956 49.0552 34.1266 49.272 34.5309C49.4946 34.9294 49.606 35.6647 49.606 36.737L49.5796 39.6198C49.5796 40.4401 49.6177 41.0465 49.6938 41.4391C49.7759 41.8258 49.9253 42.2419 50.1421 42.6872H47.6987C47.6343 42.5231 47.5552 42.2799 47.4614 41.9577C47.4204 41.8112 47.3911 41.7145 47.3735 41.6676C46.9517 42.0778 46.5005 42.3854 46.02 42.5905C45.5396 42.7956 45.0269 42.8981 44.4819 42.8981C43.521 42.8981 42.7622 42.6374 42.2056 42.1159C41.6548 41.5944 41.3794 40.9352 41.3794 40.1383C41.3794 39.611 41.5054 39.1423 41.7573 38.7321C42.0093 38.3161 42.3608 37.9997 42.812 37.7829C43.269 37.5602 43.9253 37.3669 44.7808 37.2028C45.9351 36.986 46.7349 36.7839 47.1802 36.5964V36.3503C47.1802 35.8756 47.063 35.5387 46.8286 35.3395C46.5942 35.1344 46.1519 35.0319 45.5015 35.0319C45.062 35.0319 44.7192 35.1198 44.4731 35.2956C44.2271 35.4655 44.0278 35.7673 43.8755 36.2008ZM47.1802 38.2048C46.8638 38.3102 46.3628 38.4362 45.6772 38.5827C44.9917 38.7292 44.5435 38.8727 44.3325 39.0133C44.0103 39.2419 43.8491 39.5319 43.8491 39.8835C43.8491 40.2292 43.978 40.528 44.2358 40.7799C44.4937 41.0319 44.8218 41.1579 45.2202 41.1579C45.6655 41.1579 46.0903 41.0114 46.4946 40.7184C46.7935 40.4958 46.9897 40.2233 47.0835 39.901C47.1479 39.6901 47.1802 39.2887 47.1802 38.6969V38.2048ZM60.5396 42.6872H58.0698V37.9235C58.0698 36.9157 58.0171 36.2653 57.9116 35.9723C57.8062 35.6735 57.6333 35.4421 57.3931 35.278C57.1587 35.1139 56.8745 35.0319 56.5405 35.0319C56.1128 35.0319 55.729 35.1491 55.3892 35.3835C55.0493 35.6178 54.8149 35.9284 54.686 36.3151C54.563 36.7018 54.5015 37.4167 54.5015 38.4596V42.6872H52.0317V33.3532H54.3257V34.7243C55.1401 33.6696 56.1655 33.1423 57.4019 33.1423C57.9468 33.1423 58.4448 33.2419 58.896 33.4411C59.3472 33.6344 59.687 33.8835 59.9155 34.1881C60.1499 34.4928 60.311 34.8385 60.3989 35.2253C60.4927 35.612 60.5396 36.1657 60.5396 36.8864V42.6872ZM62.8247 43.3024L65.646 43.6452C65.6929 43.9733 65.8013 44.1989 65.9712 44.3219C66.2056 44.4977 66.5747 44.5856 67.0786 44.5856C67.7231 44.5856 68.2065 44.4889 68.5288 44.2956C68.7456 44.1667 68.9097 43.9587 69.021 43.6715C69.0972 43.4665 69.1353 43.0885 69.1353 42.5378V41.1755C68.397 42.1833 67.4653 42.6872 66.3403 42.6872C65.0864 42.6872 64.0933 42.1569 63.3608 41.0964C62.7866 40.2585 62.4995 39.2155 62.4995 37.9674C62.4995 36.403 62.8745 35.2077 63.6245 34.3815C64.3804 33.5553 65.3179 33.1423 66.437 33.1423C67.5913 33.1423 68.5435 33.6491 69.2935 34.6628V33.3532H71.605V41.7292C71.605 42.8307 71.5142 43.654 71.3325 44.1989C71.1509 44.7438 70.896 45.1715 70.5679 45.4821C70.2397 45.7926 69.8003 46.0358 69.2495 46.2116C68.7046 46.3874 68.0132 46.4753 67.1753 46.4753C65.5933 46.4753 64.4712 46.2028 63.8091 45.6579C63.147 45.1188 62.8159 44.4333 62.8159 43.6012C62.8159 43.5192 62.8188 43.4196 62.8247 43.3024ZM65.0308 37.8268C65.0308 38.8171 65.2212 39.5436 65.6021 40.0065C65.9888 40.4635 66.4634 40.6921 67.0259 40.6921C67.6294 40.6921 68.1392 40.4577 68.5552 39.9889C68.9712 39.5143 69.1792 38.8141 69.1792 37.8883C69.1792 36.9215 68.98 36.2038 68.5815 35.735C68.1831 35.2663 67.6792 35.0319 67.0698 35.0319C66.478 35.0319 65.9888 35.2633 65.6021 35.7262C65.2212 36.1833 65.0308 36.8835 65.0308 37.8268ZM80.2007 42.6872V41.2897C79.8608 41.7878 79.4126 42.1803 78.856 42.4674C78.3052 42.7546 77.7222 42.8981 77.1069 42.8981C76.48 42.8981 75.9175 42.7604 75.4194 42.485C74.9214 42.2096 74.561 41.8229 74.3384 41.3249C74.1157 40.8268 74.0044 40.1383 74.0044 39.2594V33.3532H76.4741V37.6423C76.4741 38.9548 76.5181 39.7604 76.606 40.0592C76.6997 40.3522 76.8667 40.5866 77.1069 40.7624C77.3472 40.9323 77.6519 41.0173 78.021 41.0173C78.4429 41.0173 78.8208 40.903 79.1548 40.6745C79.4888 40.4401 79.7173 40.153 79.8403 39.8131C79.9634 39.4674 80.0249 38.6266 80.0249 37.2907V33.3532H82.4946V42.6872H80.2007ZM86.9067 36.2008L84.6655 35.7965C84.9175 34.8942 85.3511 34.2262 85.9663 33.7926C86.5815 33.359 87.4956 33.1423 88.7085 33.1423C89.8101 33.1423 90.6304 33.2741 91.1694 33.5378C91.7085 33.7956 92.0864 34.1266 92.3032 34.5309C92.5259 34.9294 92.6372 35.6647 92.6372 36.737L92.6108 39.6198C92.6108 40.4401 92.6489 41.0465 92.7251 41.4391C92.8071 41.8258 92.9565 42.2419 93.1733 42.6872H90.73C90.6655 42.5231 90.5864 42.2799 90.4927 41.9577C90.4517 41.8112 90.4224 41.7145 90.4048 41.6676C89.9829 42.0778 89.5317 42.3854 89.0513 42.5905C88.5708 42.7956 88.0581 42.8981 87.5132 42.8981C86.5522 42.8981 85.7935 42.6374 85.2368 42.1159C84.686 41.5944 84.4106 40.9352 84.4106 40.1383C84.4106 39.611 84.5366 39.1423 84.7886 38.7321C85.0405 38.3161 85.3921 37.9997 85.8433 37.7829C86.3003 37.5602 86.9565 37.3669 87.812 37.2028C88.9663 36.986 89.7661 36.7839 90.2114 36.5964V36.3503C90.2114 35.8756 90.0942 35.5387 89.8599 35.3395C89.6255 35.1344 89.1831 35.0319 88.5327 35.0319C88.0933 35.0319 87.7505 35.1198 87.5044 35.2956C87.2583 35.4655 87.0591 35.7673 86.9067 36.2008ZM90.2114 38.2048C89.895 38.3102 89.394 38.4362 88.7085 38.5827C88.0229 38.7292 87.5747 38.8727 87.3638 39.0133C87.0415 39.2419 86.8804 39.5319 86.8804 39.8835C86.8804 40.2292 87.0093 40.528 87.2671 40.7799C87.5249 41.0319 87.853 41.1579 88.2515 41.1579C88.6968 41.1579 89.1216 41.0114 89.5259 40.7184C89.8247 40.4958 90.021 40.2233 90.1147 39.901C90.1792 39.6901 90.2114 39.2887 90.2114 38.6969V38.2048ZM94.8521 43.3024L97.6733 43.6452C97.7202 43.9733 97.8286 44.1989 97.9985 44.3219C98.2329 44.4977 98.6021 44.5856 99.106 44.5856C99.7505 44.5856 100.234 44.4889 100.556 44.2956C100.773 44.1667 100.937 43.9587 101.048 43.6715C101.125 43.4665 101.163 43.0885 101.163 42.5378V41.1755C100.424 42.1833 99.4927 42.6872 98.3677 42.6872C97.1138 42.6872 96.1206 42.1569 95.3882 41.0964C94.814 40.2585 94.5269 39.2155 94.5269 37.9674C94.5269 36.403 94.9019 35.2077 95.6519 34.3815C96.4077 33.5553 97.3452 33.1423 98.4644 33.1423C99.6187 33.1423 100.571 33.6491 101.321 34.6628V33.3532H103.632V41.7292C103.632 42.8307 103.542 43.654 103.36 44.1989C103.178 44.7438 102.923 45.1715 102.595 45.4821C102.267 45.7926 101.828 46.0358 101.277 46.2116C100.732 46.3874 100.041 46.4753 99.2026 46.4753C97.6206 46.4753 96.4985 46.2028 95.8364 45.6579C95.1743 45.1188 94.8433 44.4333 94.8433 43.6012C94.8433 43.5192 94.8462 43.4196 94.8521 43.3024ZM97.0581 37.8268C97.0581 38.8171 97.2485 39.5436 97.6294 40.0065C98.0161 40.4635 98.4907 40.6921 99.0532 40.6921C99.6567 40.6921 100.167 40.4577 100.583 39.9889C100.999 39.5143 101.207 38.8141 101.207 37.8883C101.207 36.9215 101.007 36.2038 100.609 35.735C100.21 35.2663 99.7065 35.0319 99.0972 35.0319C98.5054 35.0319 98.0161 35.2633 97.6294 35.7262C97.2485 36.1833 97.0581 36.8835 97.0581 37.8268ZM111.49 39.7165L113.951 40.1296C113.634 41.0319 113.133 41.7204 112.448 42.195C111.768 42.6637 110.916 42.8981 109.89 42.8981C108.267 42.8981 107.066 42.3678 106.287 41.3073C105.671 40.4577 105.364 39.3854 105.364 38.0905C105.364 36.5436 105.768 35.3337 106.577 34.4606C107.385 33.5817 108.408 33.1423 109.644 33.1423C111.033 33.1423 112.128 33.6022 112.931 34.5221C113.734 35.4362 114.118 36.8395 114.083 38.7321H107.895C107.913 39.4645 108.112 40.0358 108.493 40.446C108.874 40.8503 109.348 41.0524 109.917 41.0524C110.303 41.0524 110.628 40.9469 110.892 40.736C111.156 40.5251 111.355 40.1852 111.49 39.7165ZM111.63 37.2204C111.613 36.5055 111.428 35.9635 111.077 35.5944C110.725 35.2194 110.297 35.0319 109.793 35.0319C109.254 35.0319 108.809 35.2282 108.458 35.6208C108.106 36.0133 107.933 36.5465 107.939 37.2204H111.63Z" fill="#100B0B"/>
<defs>
<filter id="filter0_d_490_1375" x="0" y="0.371035" width="129" height="63.6292" filterUnits="userSpaceOnUse" color-interpolation-filters="sRGB">
<feFlood flood-opacity="0" result="BackgroundImageFix"/>
<feColorMatrix in="SourceAlpha" type="matrix" values="0 0 0 0 0 0 0 0 0 0 0 0 0 0 0 0 0 0 127 0" result="hardAlpha"/>
<feOffset dx="3" dy="3"/>
<feGaussianBlur stdDeviation="1.5"/>
<feComposite in2="hardAlpha" operator="out"/>
<feColorMatrix type="matrix" values="0 0 0 0 0 0 0 0 0 0 0 0 0 0 0 0 0 0 0.25 0"/>
<feBlend mode="normal" in2="BackgroundImageFix" result="effect1_dropShadow_490_1375"/>
<feBlend mode="normal" in="SourceGraphic" in2="effect1_dropShadow_490_1375" result="shape"/>
</filter>
</defs>
</svg>
