<svg width="165" height="65" viewBox="0 0 165 65" fill="none" xmlns="http://www.w3.org/2000/svg">
<g opacity="0.5" filter="url(#filter0_d_490_1382)">
<path d="M130.127 1.48932C130.91 0.232896 132.739 0.232896 133.521 1.48932L141.894 14.9258H149C154.523 14.9258 159 19.403 159 24.9258V49.0001C159 54.5229 154.523 59.0001 149 59.0001H10C4.47715 59.0001 0 54.5229 0 49.0001V24.9258C0 19.403 4.47715 14.9258 10 14.9258H121.755L130.127 1.48932Z" fill="#D9D9D9" fill-opacity="0.71" shape-rendering="crispEdges"/>
</g>
<path d="M13.356 31.9372H25.606V33.6872H13.356V31.9372ZM13.356 45.9372H11.606V33.6872H13.356V45.9372ZM25.606 45.9372V47.6872H13.356V45.9372H25.606ZM25.606 45.9372H27.356V33.6872H25.606V45.9372ZM17.731 36.3122H15.981V38.0622H17.731V36.3122ZM21.231 36.3122H22.981V38.0622H21.231V36.3122ZM16.856 41.5622V39.8122H15.106V41.5622H16.856ZM22.106 41.5622V43.3122H16.856V41.5622H22.106ZM22.106 41.5622H23.856V39.8122H22.106V41.5622Z" fill="black"/>
<path d="M39.7358 43.6872V30.9079H42.3374V41.5163H48.8062V43.6872H39.7358ZM50.0806 38.8883C50.0806 38.068 50.2827 37.2741 50.687 36.5065C51.0913 35.7389 51.6626 35.153 52.4009 34.7487C53.145 34.3444 53.9741 34.1423 54.8882 34.1423C56.3003 34.1423 57.4575 34.6022 58.3599 35.5221C59.2622 36.4362 59.7134 37.5934 59.7134 38.9938C59.7134 40.4059 59.2563 41.5778 58.3423 42.5094C57.4341 43.4352 56.2886 43.8981 54.9058 43.8981C54.0503 43.8981 53.2329 43.7048 52.4536 43.318C51.6802 42.9313 51.0913 42.3659 50.687 41.6217C50.2827 40.8717 50.0806 39.9606 50.0806 38.8883ZM52.6118 39.0202C52.6118 39.946 52.8315 40.6549 53.271 41.1471C53.7104 41.6393 54.2524 41.8854 54.897 41.8854C55.5415 41.8854 56.0806 41.6393 56.5142 41.1471C56.9536 40.6549 57.1733 39.9401 57.1733 39.0026C57.1733 38.0885 56.9536 37.3854 56.5142 36.8932C56.0806 36.401 55.5415 36.1549 54.897 36.1549C54.2524 36.1549 53.7104 36.401 53.271 36.8932C52.8315 37.3854 52.6118 38.0944 52.6118 39.0202ZM61.4272 44.3024L64.2485 44.6452C64.2954 44.9733 64.4038 45.1989 64.5737 45.3219C64.8081 45.4977 65.1772 45.5856 65.6812 45.5856C66.3257 45.5856 66.8091 45.4889 67.1313 45.2956C67.3481 45.1667 67.5122 44.9587 67.6235 44.6715C67.6997 44.4665 67.7378 44.0885 67.7378 43.5378V42.1755C66.9995 43.1833 66.0679 43.6872 64.9429 43.6872C63.689 43.6872 62.6958 43.1569 61.9634 42.0964C61.3892 41.2585 61.1021 40.2155 61.1021 38.9674C61.1021 37.403 61.4771 36.2077 62.2271 35.3815C62.9829 34.5553 63.9204 34.1423 65.0396 34.1423C66.1938 34.1423 67.146 34.6491 67.896 35.6628V34.3532H70.2075V42.7292C70.2075 43.8307 70.1167 44.654 69.9351 45.1989C69.7534 45.7438 69.4985 46.1715 69.1704 46.4821C68.8423 46.7926 68.4028 47.0358 67.8521 47.2116C67.3071 47.3874 66.6157 47.4753 65.7778 47.4753C64.1958 47.4753 63.0737 47.2028 62.4116 46.6579C61.7495 46.1188 61.4185 45.4333 61.4185 44.6012C61.4185 44.5192 61.4214 44.4196 61.4272 44.3024ZM63.6333 38.8268C63.6333 39.8171 63.8237 40.5436 64.2046 41.0065C64.5913 41.4635 65.0659 41.6921 65.6284 41.6921C66.2319 41.6921 66.7417 41.4577 67.1577 40.9889C67.5737 40.5143 67.7817 39.8141 67.7817 38.8883C67.7817 37.9215 67.5825 37.2038 67.1841 36.735C66.7856 36.2663 66.2817 36.0319 65.6724 36.0319C65.0806 36.0319 64.5913 36.2633 64.2046 36.7262C63.8237 37.1833 63.6333 37.8835 63.6333 38.8268ZM72.6597 33.0876V30.8024H75.1294V33.0876H72.6597ZM72.6597 43.6872V34.3532H75.1294V43.6872H72.6597ZM86.1597 43.6872H83.6899V38.9235C83.6899 37.9157 83.6372 37.2653 83.5317 36.9723C83.4263 36.6735 83.2534 36.4421 83.0132 36.278C82.7788 36.1139 82.4946 36.0319 82.1606 36.0319C81.7329 36.0319 81.3491 36.1491 81.0093 36.3835C80.6694 36.6178 80.4351 36.9284 80.3062 37.3151C80.1831 37.7018 80.1216 38.4167 80.1216 39.4596V43.6872H77.6519V34.3532H79.9458V35.7243C80.7603 34.6696 81.7856 34.1423 83.022 34.1423C83.5669 34.1423 84.0649 34.2419 84.5161 34.4411C84.9673 34.6344 85.3071 34.8835 85.5356 35.1881C85.77 35.4928 85.9312 35.8385 86.019 36.2253C86.1128 36.612 86.1597 37.1657 86.1597 37.8864V43.6872ZM92.3647 43.9069L95.5552 30.5827H97.4097L94.1841 43.9069H92.3647ZM108.37 30.8024H110.962V38.9587C110.962 40.0251 110.869 40.8454 110.681 41.4196C110.429 42.1696 109.972 42.7731 109.31 43.2301C108.648 43.6813 107.775 43.9069 106.691 43.9069C105.419 43.9069 104.441 43.5524 103.755 42.8434C103.07 42.1286 102.724 41.0827 102.718 39.7057L105.17 39.4245C105.2 40.1628 105.308 40.6842 105.496 40.9889C105.777 41.4518 106.205 41.6833 106.779 41.6833C107.359 41.6833 107.769 41.5192 108.009 41.1911C108.25 40.8571 108.37 40.1686 108.37 39.1256V30.8024ZM113.151 38.8883C113.151 38.068 113.353 37.2741 113.757 36.5065C114.162 35.7389 114.733 35.153 115.471 34.7487C116.215 34.3444 117.044 34.1423 117.958 34.1423C119.371 34.1423 120.528 34.6022 121.43 35.5221C122.333 36.4362 122.784 37.5934 122.784 38.9938C122.784 40.4059 122.327 41.5778 121.413 42.5094C120.504 43.4352 119.359 43.8981 117.976 43.8981C117.121 43.8981 116.303 43.7048 115.524 43.318C114.75 42.9313 114.162 42.3659 113.757 41.6217C113.353 40.8717 113.151 39.9606 113.151 38.8883ZM115.682 39.0202C115.682 39.946 115.902 40.6549 116.341 41.1471C116.781 41.6393 117.323 41.8854 117.967 41.8854C118.612 41.8854 119.151 41.6393 119.584 41.1471C120.024 40.6549 120.244 39.9401 120.244 39.0026C120.244 38.0885 120.024 37.3854 119.584 36.8932C119.151 36.401 118.612 36.1549 117.967 36.1549C117.323 36.1549 116.781 36.401 116.341 36.8932C115.902 37.3854 115.682 38.0944 115.682 39.0202ZM124.726 33.0876V30.8024H127.196V33.0876H124.726ZM124.726 43.6872V34.3532H127.196V43.6872H124.726ZM138.226 43.6872H135.756V38.9235C135.756 37.9157 135.704 37.2653 135.598 36.9723C135.493 36.6735 135.32 36.4421 135.08 36.278C134.845 36.1139 134.561 36.0319 134.227 36.0319C133.799 36.0319 133.416 36.1491 133.076 36.3835C132.736 36.6178 132.501 36.9284 132.373 37.3151C132.25 37.7018 132.188 38.4167 132.188 39.4596V43.6872H129.718V34.3532H132.012V35.7243C132.827 34.6696 133.852 34.1423 135.088 34.1423C135.633 34.1423 136.131 34.2419 136.583 34.4411C137.034 34.6344 137.374 34.8835 137.602 35.1881C137.836 35.4928 137.998 35.8385 138.085 36.2253C138.179 36.612 138.226 37.1657 138.226 37.8864V43.6872Z" fill="#100B0B"/>
<defs>
<filter id="filter0_d_490_1382" x="0" y="0.547003" width="165" height="64.4531" filterUnits="userSpaceOnUse" color-interpolation-filters="sRGB">
<feFlood flood-opacity="0" result="BackgroundImageFix"/>
<feColorMatrix in="SourceAlpha" type="matrix" values="0 0 0 0 0 0 0 0 0 0 0 0 0 0 0 0 0 0 127 0" result="hardAlpha"/>
<feOffset dx="3" dy="3"/>
<feGaussianBlur stdDeviation="1.5"/>
<feComposite in2="hardAlpha" operator="out"/>
<feColorMatrix type="matrix" values="0 0 0 0 0 0 0 0 0 0 0 0 0 0 0 0 0 0 0.25 0"/>
<feBlend mode="normal" in2="BackgroundImageFix" result="effect1_dropShadow_490_1382"/>
<feBlend mode="normal" in="SourceGraphic" in2="effect1_dropShadow_490_1382" result="shape"/>
</filter>
</defs>
</svg>
