<svg width="659" height="96" viewBox="0 0 659 96" fill="none" xmlns="http://www.w3.org/2000/svg">
<path d="M3 78.5918C24.4273 74.3609 41.4097 70.5829 54.1253 70.1018C68.0983 69.5731 74.7977 77.1485 81.0155 80.4667C95.2777 88.0779 125.66 83.318 142.049 78.6131C161.841 72.9309 195.625 69.1678 214.465 72.4436C222.413 73.8255 228.606 79.9785 238.217 85.6457C246.18 90.3413 254.054 93.1948 279.138 92.9896C286.815 91.8222 294.093 89.4874 301.481 85.4829C308.87 81.4785 316.148 75.875 323.646 70.1018" stroke="#D4331A" stroke-width="5" stroke-linecap="round"/>
<path d="M320.395 7.24536L323.647 23.802" stroke="#D4331A" stroke-width="5" stroke-linecap="round"/>
<path d="M330.799 3L332.1 19.9811" stroke="#D4331A" stroke-width="5" stroke-linecap="round"/>
<path d="M645.596 4.69812L639.092 22.5283" stroke="#D4331A" stroke-width="5" stroke-linecap="round"/>
<path d="M656 7.24536C655.463 8.62083 654.927 9.9963 654.382 11.3926C653.837 12.7889 653.301 14.1644 653.024 16.0192C652.748 17.874 652.748 20.1665 652.748 22.5284" stroke="#D4331A" stroke-width="5" stroke-linecap="round"/>
</svg>
